<svg width="412" height="375" viewBox="0 0 412 375" fill="none" xmlns="http://www.w3.org/2000/svg">
<path d="M44.8804 207.445C44.8804 197.929 47.7425 192.976 53.1848 189.195L220.466 252.027C212.016 275.491 219.056 296.661 227.484 302.605L56.6243 231.561C51.7784 228.109 44.8804 219.568 44.8804 207.445Z" fill="white"/>
<path fill-rule="evenodd" clip-rule="evenodd" d="M49.2793 184.537C51.1004 183.272 53.5229 182.984 55.6405 183.779L222.922 246.611C226.036 247.781 227.633 250.938 226.583 253.852C222.698 264.641 222.408 274.817 223.983 282.857C225.621 291.214 229.046 296.294 231.427 297.974C234.011 299.797 234.684 303.092 232.992 305.638C231.301 308.183 227.782 309.171 224.809 307.935L53.9493 236.891C53.4891 236.699 53.0552 236.459 52.6568 236.175C46.4511 231.755 38.4429 221.589 38.4429 207.445C38.4429 202.184 39.2287 197.697 41.0951 193.819C43.0041 189.852 45.8524 186.918 49.2793 184.537ZM56.6243 231.561C51.7785 228.109 44.8804 219.568 44.8804 207.445C44.8804 197.929 47.7425 192.976 53.1848 189.195L220.466 252.027C214.593 268.335 216.203 283.535 220.56 293.285C222.472 297.563 224.913 300.792 227.484 302.605L56.6243 231.561Z" fill="black"/>
<path d="M367.12 129.349L205.311 72.3945L52.3521 189.756L228.066 257.066L367.12 129.349Z" fill="black"/>
<path fill-rule="evenodd" clip-rule="evenodd" d="M201.162 67.9146C202.96 66.5354 205.441 66.1578 207.633 66.9297L369.442 123.884C371.467 124.597 372.961 126.192 373.415 128.125C373.869 130.058 373.221 132.07 371.692 133.474L232.638 261.19C230.789 262.889 227.99 263.394 225.569 262.467L49.855 195.156C47.7898 194.365 46.325 192.654 45.9879 190.637C45.6508 188.621 46.4898 186.59 48.203 185.276L201.162 67.9146ZM205.311 72.3946L367.12 129.349L228.066 257.066L52.3522 189.756L205.311 72.3946Z" fill="black"/>
<path d="M274.602 142.723L203.853 117.434L190.271 128.04L260.424 154.781L274.602 142.723Z" fill="white"/>
<path d="M366.978 173.03C351.51 161.558 354.375 143.178 366.262 129.621L221.61 253.981C212.731 273.404 219.937 292.183 227.627 302.539L366.978 173.03Z" fill="white"/>
<path fill-rule="evenodd" clip-rule="evenodd" d="M370.62 125.309C373.108 127.392 373.402 130.871 371.293 133.276C366.021 139.289 363.012 146.091 362.796 152.293C362.587 158.297 364.954 163.971 371.044 168.487C372.447 169.528 373.304 171.057 373.405 172.701C373.507 174.346 372.843 175.953 371.577 177.13L232.226 306.639C230.873 307.896 228.971 308.533 227.046 308.374C225.121 308.216 223.376 307.278 222.293 305.82C213.839 294.436 205.689 273.557 215.667 251.73C216.014 250.971 216.533 250.286 217.19 249.721L361.841 125.361C364.299 123.249 368.133 123.226 370.62 125.309ZM366.262 129.621L221.61 253.981C214.068 270.479 218.131 286.512 224.238 297.314C225.321 299.229 226.468 300.979 227.627 302.539L366.978 173.03C365.39 171.852 363.995 170.602 362.784 169.291C356.355 162.337 355.082 153.69 357.461 145.248C359 139.782 362.07 134.402 366.262 129.621Z" fill="black"/>
<path fill-rule="evenodd" clip-rule="evenodd" d="M357.977 171.515C359.213 172.678 359.18 174.532 357.903 175.658L259.369 262.475C258.091 263.6 256.054 263.57 254.817 262.408C253.581 261.245 253.614 259.39 254.891 258.265L353.425 171.448C354.703 170.322 356.74 170.353 357.977 171.515Z" fill="black"/>
<path fill-rule="evenodd" clip-rule="evenodd" d="M352.295 164.259C353.504 165.445 353.428 167.299 352.124 168.4L288.536 222.106C287.233 223.207 285.196 223.138 283.987 221.952C282.778 220.766 282.854 218.912 284.157 217.811L347.746 164.104C349.049 163.004 351.085 163.073 352.295 164.259Z" fill="black"/>
<path fill-rule="evenodd" clip-rule="evenodd" d="M79.703 223.734C80.3992 222.245 82.2896 221.552 83.9252 222.186L145.248 245.942C146.884 246.576 147.645 248.297 146.949 249.785C146.253 251.274 144.363 251.967 142.727 251.334L81.4041 227.577C79.7684 226.943 79.0068 225.223 79.703 223.734Z" fill="black"/>
</svg>
