<svg width="207" height="174" viewBox="0 0 207 174" fill="none" xmlns="http://www.w3.org/2000/svg">
<path d="M168.591 173.879H39.0247C28.8581 173.879 19.1079 169.173 11.919 160.796C4.73009 152.419 0.691406 141.058 0.691406 129.212V45.3503C0.691406 33.5039 4.73009 22.1428 11.919 13.7662C19.1079 5.38953 28.8581 0.683594 39.0247 0.683594H168.591C178.758 0.683594 188.508 5.38953 195.697 13.7662C202.886 22.1428 206.925 33.5039 206.925 45.3503V129.324C206.899 141.151 202.849 152.483 195.663 160.836C188.477 169.188 178.741 173.879 168.591 173.879ZM39.0247 17.5453C32.7038 17.5747 26.6489 20.5136 22.1793 25.7216C17.7097 30.9297 15.1875 37.985 15.1622 45.3503V129.324C15.1622 136.698 17.6763 143.77 22.1514 148.985C26.6265 154.199 32.696 157.129 39.0247 157.129H168.591C174.92 157.129 180.99 154.199 185.465 148.985C189.94 143.77 192.454 136.698 192.454 129.324V45.3503C192.429 37.985 189.906 30.9297 185.437 25.7216C180.967 20.5136 174.912 17.5747 168.591 17.5453H39.0247Z" fill="#2D2D2D"/>
</svg>
