<svg width="278" height="329" viewBox="0 0 278 329" fill="none" xmlns="http://www.w3.org/2000/svg">
<path fill-rule="evenodd" clip-rule="evenodd" d="M139 0C62.2142 0 0 73.6811 0 164.47C0 250.772 56.2598 321.609 127.725 328.406V329H139C215.786 329 278 255.319 278 164.53C278 73.7474 215.791 0 139 0ZM169.714 297.474C160.994 300.288 151.866 301.934 142.457 302.258H139C123.311 302.258 108.343 298.581 94.6793 291.915C107.909 235.502 143.773 195.094 184.823 177.038C191.907 217.668 186.765 261.209 169.714 297.474ZM178.572 151.34C131.721 171.311 90.8032 216.295 74.3622 279.078C43.1292 254.355 22.5498 212.238 22.5498 164.47C22.5498 147.531 25.1351 131.303 29.8648 116.309C43.9625 124.622 59.0369 130.502 74.5391 133.772C94.2867 138.057 114.519 137.914 134.21 133.713C145.417 131.318 156.359 127.504 166.85 122.421C171.52 131.609 175.448 141.29 178.572 151.34ZM206.558 169.693C213.328 206.677 211.275 245.869 200.47 281.574C232.527 257.949 254.169 216.401 255.395 168.803C239.459 165.384 222.849 165.801 206.558 169.693ZM253.828 141.486C236.18 138.553 218.032 139.506 200.304 143.987C196.813 132.395 192.406 121.229 187.156 110.625C201.72 100.67 215.021 88.1402 226.455 73.5301C240.439 92.3467 250.159 115.707 253.828 141.486ZM78.5232 107.509C65.0562 104.672 51.9755 99.5569 39.7687 92.3371C50.2671 72.1623 65.0372 55.4283 82.5886 43.904L82.724 43.9544L82.7291 43.9563L82.7297 43.9565L82.73 43.9566C84.6421 44.6688 86.4676 45.3487 88.2254 46.0953C88.8739 46.3885 89.509 46.6734 90.1297 46.9519L90.1395 46.9562L90.14 46.9565L90.1403 46.9566C92.9907 48.2356 95.5359 49.3777 97.6622 50.5443L98.269 50.9033L98.4137 50.9829C99.7563 51.7219 101.691 52.8133 103.435 53.7972C104.361 54.3205 105.234 54.813 105.936 55.2057L105.962 55.2227C106.548 55.5954 107.041 55.9084 107.5 56.2323C107.873 56.5191 108.207 56.7515 108.386 56.8754C108.713 57.1021 109.049 57.3262 109.326 57.5087C109.563 57.6645 109.796 57.8161 109.97 57.9292L110.058 57.9863L110.243 58.1076L110.266 58.1235C110.525 58.2998 110.839 58.5116 111.196 58.7532C111.963 59.2709 112.932 59.9253 113.996 60.6625C114.746 61.1827 115.448 61.6788 116.021 62.0988C116.446 62.4116 116.678 62.5932 116.766 62.6622L116.771 62.6663C116.807 62.6948 116.815 62.7014 116.801 62.6882L117.295 63.1315L117.844 63.5176C118.682 64.1057 119.507 64.7815 120.537 65.6247L120.537 65.625L120.537 65.6253L120.542 65.6288C121.012 66.0139 121.525 66.4339 122.101 66.8965L122.492 67.2106L122.825 67.4327C122.824 67.4331 122.83 67.4379 122.842 67.4475C122.85 67.4537 122.86 67.4619 122.873 67.4722C122.962 67.5435 123.18 67.7168 123.558 68.0377C124.141 68.5312 124.844 69.1507 125.618 69.8395L126.535 70.6569C127.006 71.0779 127.484 71.5046 127.89 71.8644C128.427 72.3399 129.084 72.9172 129.677 73.4035C138.329 81.2349 146.238 90.1773 153.28 100.034C145.788 103.278 138.067 105.775 130.205 107.455C113.067 111.112 95.5624 111.21 78.5823 107.522L78.5527 107.516L78.5232 107.509ZM139 26.6818C165.729 26.6818 190.352 37.3506 210.005 55.2799C199.701 68.4725 187.635 79.7079 174.424 88.5005C165.34 74.8376 154.832 62.5365 143.116 51.9743L142.832 51.7193L142.539 51.4875L142.459 51.4217C142.396 51.3694 142.313 51.2988 142.206 51.2069C141.99 51.0209 141.722 50.7862 141.4 50.5013C141.036 50.1784 140.67 49.8519 140.277 49.5011L140.276 49.5004L140.196 49.4284C139.877 49.1438 139.54 48.8426 139.171 48.5144C138.373 47.8039 137.497 47.0311 136.693 46.349C136.13 45.8722 135.322 45.1978 134.497 44.6032L133.974 44.1746L133.971 44.1722L133.971 44.1721C132.897 43.2922 131.287 41.9723 129.822 40.9077C128.453 39.7722 126.604 38.4786 125.392 37.6388C124.219 36.8257 122.955 35.9723 122.171 35.4424L122.164 35.4383L121.57 35.0362C121.426 34.9364 121.3 34.8535 121.248 34.8193L121.248 34.8192L121.245 34.8173L121.238 34.8127L120.934 34.6134L120.831 34.5462C120.656 34.4323 120.481 34.3182 120.299 34.1982C120.09 34.061 119.922 33.9478 119.799 33.8631L119.714 33.7929L119.415 33.5766C118.332 32.7935 117.204 32.0783 116.591 31.6901L116.578 31.6818L116.365 31.5465L116.103 31.3797L115.834 31.2294C115.296 30.9287 114.5 30.4803 113.597 29.9708C121.774 27.8176 130.275 26.6818 139 26.6818Z" fill="#060318"/>
</svg>
