<!--?xml version="1.0" standalone="no"?-->
              <svg id="sw-js-blob-svg" viewBox="0 0 100 100" xmlns="http://www.w3.org/2000/svg" version="1.1">
                    <defs> 
                        <linearGradient id="sw-gradient" x1="0" x2="1" y1="1" y2="0">
                            <stop id="stop1" stop-color="rgba(248, 117, 55, 1)" offset="0%"></stop>
                            <stop id="stop2" stop-color="rgba(251, 168, 31, 1)" offset="100%"></stop>
                        </linearGradient>
                    </defs>
                <path fill="url(#sw-gradient)" d="M22.2,-30.4C29,-25.6,35,-19.4,36.5,-12.4C38.1,-5.4,35.2,2.6,32.7,10.7C30.2,18.9,28,27.2,22.6,30.9C17.2,34.6,8.6,33.6,-0.1,33.8C-8.8,33.9,-17.7,35.2,-23.5,31.7C-29.3,28.1,-32.1,19.7,-32.7,12C-33.3,4.3,-31.7,-2.7,-29.5,-9.6C-27.3,-16.5,-24.5,-23.1,-19.5,-28.6C-14.4,-34.1,-7.2,-38.3,0.2,-38.6C7.7,-38.9,15.4,-35.3,22.2,-30.4Z" width="100%" height="100%" transform="translate(50 50)" stroke-width="0" style="transition: 0.3s;"></path>
              </svg>